# Blender 4.5.3 LTS
# www.blender.org
mtllib MuzzleFlash07.mtl
o Plane
v 0.022943 -1.389451 0.017959
v 5.608529 -1.389452 0.017959
v 0.022944 1.404251 -0.003185
v 5.608529 1.404250 -0.003185
vn -0.0000 0.0076 1.0000
vt 0.000000 0.000000
vt 1.000000 0.000000
vt 1.000000 1.000000
vt 0.000000 1.000000
s 0
f 1/1/1 2/2/1 4/3/1 3/4/1
o Plane.001
v -0.070213 0.007399 1.776953
v 5.515372 0.007400 1.776953
v -0.070213 0.007399 -1.808273
v 5.515372 0.007400 -1.808273
vn -0.0000 1.0000 -0.0000
vt 0.000000 0.000000
vt 1.000000 0.000000
vt 1.000000 1.000000
vt 0.000000 1.000000
s 0
f 5/5/2 6/6/2 8/7/2 7/8/2
